<mxfile host="app.diagrams.net" agent="Mozilla/5.0 (Windows NT 10.0; Win64; x64) AppleWebKit/537.36 (KHTML, like Gecko) Chrome/131.0.0.0 Safari/537.36" version="25.0.1">
  <diagram name="Page-1" id="oSemSmAW_gVS-rDej4Mm">
    <mxGraphModel dx="1105" dy="635" grid="1" gridSize="10" guides="1" tooltips="1" connect="1" arrows="1" fold="1" page="1" pageScale="1" pageWidth="850" pageHeight="1100" math="0" shadow="0">
      <root>
        <mxCell id="0" />
        <mxCell id="1" parent="0" />
        <mxCell id="QliTTDGXT977iU80RVGO-1" value="Koordinator" style="swimlane;whiteSpace=wrap;html=1;" vertex="1" parent="1">
          <mxGeometry x="210" y="140" width="200" height="420" as="geometry" />
        </mxCell>
        <mxCell id="QliTTDGXT977iU80RVGO-2" value="&lt;font style=&quot;font-size: 9px;&quot;&gt;start&lt;/font&gt;" style="rounded=0;orthogonalLoop=1;jettySize=auto;html=1;" edge="1" parent="QliTTDGXT977iU80RVGO-1" source="QliTTDGXT977iU80RVGO-3" target="QliTTDGXT977iU80RVGO-4">
          <mxGeometry relative="1" as="geometry" />
        </mxCell>
        <mxCell id="QliTTDGXT977iU80RVGO-3" value="" style="ellipse;whiteSpace=wrap;html=1;aspect=fixed;" vertex="1" parent="QliTTDGXT977iU80RVGO-1">
          <mxGeometry x="90" y="30" width="20" height="20" as="geometry" />
        </mxCell>
        <mxCell id="QliTTDGXT977iU80RVGO-4" value="Membuka Fitur Plotting Dosen Pada SIdebar" style="rounded=1;whiteSpace=wrap;html=1;fontSize=8;" vertex="1" parent="QliTTDGXT977iU80RVGO-1">
          <mxGeometry x="45" y="80" width="110" height="40" as="geometry" />
        </mxCell>
        <mxCell id="QliTTDGXT977iU80RVGO-6" value="Cari Dosen" style="rounded=1;whiteSpace=wrap;html=1;fontSize=8;" vertex="1" parent="QliTTDGXT977iU80RVGO-1">
          <mxGeometry x="45" y="140" width="110" height="30" as="geometry" />
        </mxCell>
        <mxCell id="QliTTDGXT977iU80RVGO-28" style="edgeStyle=orthogonalEdgeStyle;rounded=0;orthogonalLoop=1;jettySize=auto;html=1;" edge="1" parent="QliTTDGXT977iU80RVGO-1" source="QliTTDGXT977iU80RVGO-8" target="QliTTDGXT977iU80RVGO-11">
          <mxGeometry relative="1" as="geometry" />
        </mxCell>
        <mxCell id="QliTTDGXT977iU80RVGO-8" value="Pilih Mahasiswa yang mau di Plotting sesuai dosen yang tersedia" style="rounded=1;whiteSpace=wrap;html=1;fontSize=8;" vertex="1" parent="QliTTDGXT977iU80RVGO-1">
          <mxGeometry x="45" y="200" width="110" height="40" as="geometry" />
        </mxCell>
        <mxCell id="QliTTDGXT977iU80RVGO-11" value="&lt;font style=&quot;font-size: 8px;&quot;&gt;Plotting Dosen&lt;/font&gt;" style="rhombus;whiteSpace=wrap;html=1;" vertex="1" parent="QliTTDGXT977iU80RVGO-1">
          <mxGeometry x="75" y="270" width="50" height="70" as="geometry" />
        </mxCell>
        <mxCell id="QliTTDGXT977iU80RVGO-12" value="Sistem" style="swimlane;whiteSpace=wrap;html=1;" vertex="1" parent="1">
          <mxGeometry x="410" y="140" width="200" height="420" as="geometry" />
        </mxCell>
        <mxCell id="QliTTDGXT977iU80RVGO-13" value="&lt;font style=&quot;font-size: 8px;&quot;&gt;end&lt;/font&gt;" style="edgeStyle=orthogonalEdgeStyle;rounded=0;orthogonalLoop=1;jettySize=auto;html=1;entryX=0.5;entryY=1;entryDx=0;entryDy=0;" edge="1" parent="QliTTDGXT977iU80RVGO-12" source="QliTTDGXT977iU80RVGO-14" target="QliTTDGXT977iU80RVGO-19">
          <mxGeometry relative="1" as="geometry" />
        </mxCell>
        <mxCell id="QliTTDGXT977iU80RVGO-14" value="Menampilkan Halaman Plotting Dosen" style="rounded=1;whiteSpace=wrap;html=1;fontSize=8;" vertex="1" parent="QliTTDGXT977iU80RVGO-12">
          <mxGeometry x="40" y="80" width="110" height="40" as="geometry" />
        </mxCell>
        <mxCell id="QliTTDGXT977iU80RVGO-15" value="Menampilkan daftar Dosen yang tersedia atau yang memiliki kouta" style="rounded=1;whiteSpace=wrap;html=1;fontSize=8;" vertex="1" parent="QliTTDGXT977iU80RVGO-12">
          <mxGeometry x="40" y="160" width="110" height="40" as="geometry" />
        </mxCell>
        <mxCell id="QliTTDGXT977iU80RVGO-19" value="" style="ellipse;whiteSpace=wrap;html=1;aspect=fixed;" vertex="1" parent="QliTTDGXT977iU80RVGO-12">
          <mxGeometry x="85" y="30" width="20" height="20" as="geometry" />
        </mxCell>
        <mxCell id="QliTTDGXT977iU80RVGO-36" value="&lt;font style=&quot;font-size: 5px;&quot;&gt;end&lt;/font&gt;" style="edgeStyle=orthogonalEdgeStyle;rounded=0;orthogonalLoop=1;jettySize=auto;html=1;exitX=1;exitY=0.5;exitDx=0;exitDy=0;" edge="1" parent="QliTTDGXT977iU80RVGO-12" source="QliTTDGXT977iU80RVGO-32" target="QliTTDGXT977iU80RVGO-35">
          <mxGeometry relative="1" as="geometry" />
        </mxCell>
        <mxCell id="QliTTDGXT977iU80RVGO-32" value="Selesai Menambahkan Mahasiswa Bimbingan" style="rounded=1;whiteSpace=wrap;html=1;fontSize=8;" vertex="1" parent="QliTTDGXT977iU80RVGO-12">
          <mxGeometry x="30" y="340" width="110" height="40" as="geometry" />
        </mxCell>
        <mxCell id="QliTTDGXT977iU80RVGO-35" value="" style="ellipse;whiteSpace=wrap;html=1;aspect=fixed;" vertex="1" parent="QliTTDGXT977iU80RVGO-12">
          <mxGeometry x="170" y="350" width="20" height="20" as="geometry" />
        </mxCell>
        <mxCell id="QliTTDGXT977iU80RVGO-20" value="&lt;b&gt;Aktivity Diagram Plotting Dosen&lt;/b&gt;" style="text;html=1;align=center;verticalAlign=middle;whiteSpace=wrap;rounded=0;" vertex="1" parent="1">
          <mxGeometry x="300" y="100" width="210" height="30" as="geometry" />
        </mxCell>
        <mxCell id="QliTTDGXT977iU80RVGO-21" style="rounded=0;orthogonalLoop=1;jettySize=auto;html=1;entryX=0;entryY=0.5;entryDx=0;entryDy=0;" edge="1" parent="1" source="QliTTDGXT977iU80RVGO-4" target="QliTTDGXT977iU80RVGO-14">
          <mxGeometry relative="1" as="geometry" />
        </mxCell>
        <mxCell id="QliTTDGXT977iU80RVGO-22" style="rounded=0;orthogonalLoop=1;jettySize=auto;html=1;entryX=1;entryY=0.5;entryDx=0;entryDy=0;" edge="1" parent="1" source="QliTTDGXT977iU80RVGO-14" target="QliTTDGXT977iU80RVGO-6">
          <mxGeometry relative="1" as="geometry" />
        </mxCell>
        <mxCell id="QliTTDGXT977iU80RVGO-23" style="edgeStyle=orthogonalEdgeStyle;rounded=0;orthogonalLoop=1;jettySize=auto;html=1;entryX=0;entryY=0.5;entryDx=0;entryDy=0;" edge="1" parent="1" source="QliTTDGXT977iU80RVGO-6" target="QliTTDGXT977iU80RVGO-15">
          <mxGeometry relative="1" as="geometry">
            <Array as="points">
              <mxPoint x="310" y="320" />
            </Array>
          </mxGeometry>
        </mxCell>
        <mxCell id="QliTTDGXT977iU80RVGO-29" value="Cancel" style="edgeStyle=orthogonalEdgeStyle;rounded=0;orthogonalLoop=1;jettySize=auto;html=1;entryX=1;entryY=0.5;entryDx=0;entryDy=0;" edge="1" parent="1" source="QliTTDGXT977iU80RVGO-11" target="QliTTDGXT977iU80RVGO-14">
          <mxGeometry relative="1" as="geometry">
            <Array as="points">
              <mxPoint x="580" y="445" />
              <mxPoint x="580" y="240" />
            </Array>
          </mxGeometry>
        </mxCell>
        <mxCell id="QliTTDGXT977iU80RVGO-30" style="edgeStyle=orthogonalEdgeStyle;rounded=0;orthogonalLoop=1;jettySize=auto;html=1;entryX=1;entryY=0.5;entryDx=0;entryDy=0;" edge="1" parent="1" source="QliTTDGXT977iU80RVGO-15" target="QliTTDGXT977iU80RVGO-8">
          <mxGeometry relative="1" as="geometry">
            <Array as="points">
              <mxPoint x="505" y="365" />
            </Array>
          </mxGeometry>
        </mxCell>
        <mxCell id="QliTTDGXT977iU80RVGO-33" value="Ok" style="edgeStyle=orthogonalEdgeStyle;rounded=0;orthogonalLoop=1;jettySize=auto;html=1;exitX=0.5;exitY=1;exitDx=0;exitDy=0;entryX=0;entryY=0.5;entryDx=0;entryDy=0;" edge="1" parent="1" source="QliTTDGXT977iU80RVGO-11" target="QliTTDGXT977iU80RVGO-32">
          <mxGeometry relative="1" as="geometry" />
        </mxCell>
      </root>
    </mxGraphModel>
  </diagram>
</mxfile>
